# xmcd
#
# Track frame offsets:
#	183
#	11823
#	23750
#	31685
#	46278
#	59235
#	68725
#	84465
#	95490
#	108103
#	118493
#	130145
#	140203
#	155193
#	167120
#	177570
#	186128
#	196203
#	211288
#	223185
#
# Disc length: 3144 seconds
#
# Revision: 1
# Processed by: cddbd v1.5.2PL0 Copyright (c) Steve Scherf et al.
# Submitted via: audiograbber 1.83.01
#
DISCID=2f0c4614
DTITLE=COUNTRY INSTAMENTAL - COUNTRY INSTRAMENTAL
DYEAR=1900
DGENRE=Country
TTITLE0=STROLLIN
TTITLE1=BLUEBERRY HILL
TTITLE2=BREAK RAG
TTITLE3=MAY BE TOMORROW
TTITLE4=SMOKE,SMOKE,SMOKE THAT CIGARETTE
TTITLE5=POPPER BOYS
TTITLE6=BEAUTIFUL BLUE MOUNTAIN
TTITLE7=I'VE GOT A TIGER BY THE TAIL
TTITLE8=GREEN RIVER
TTITLE9=HIGHLAND RIM
TTITLE10=NORTH OF MONTANA
TTITLE11=PRETTY MONICA
TTITLE12=ORANGE BLOSSOM SPECIAL
TTITLE13=NASHVILLE COUNTRY
TTITLE14=COME ON WILLIAMS
TTITLE15=LIAR'S POLKA
TTITLE16=ROGER'S HAY-RIDE
TTITLE17=YELLOW DOG BOOGIE
TTITLE18=KING OF THE HILL
TTITLE19=IT'S TWO IN THE MORNING
EXTD=
EXTT0=
EXTT1=
EXTT2=
EXTT3=
EXTT4=
EXTT5=
EXTT6=
EXTT7=
EXTT8=
EXTT9=
EXTT10=
EXTT11=
EXTT12=
EXTT13=
EXTT14=
EXTT15=
EXTT16=
EXTT17=
EXTT18=
EXTT19=
PLAYORDER=
